<?xml version="1.0" encoding="utf-8"?>
<!-- Generator: Adobe Illustrator 16.0.3, SVG Export Plug-In . SVG Version: 6.00 Build 0)  -->
<!DOCTYPE svg PUBLIC "-//W3C//DTD SVG 1.1//EN" "http://www.w3.org/Graphics/SVG/1.1/DTD/svg11.dtd">
<svg version="1.1" id="Layer_1" xmlns="http://www.w3.org/2000/svg" xmlns:xlink="http://www.w3.org/1999/xlink" x="0px" y="0px"
	 width="283.465px" height="283.465px" viewBox="0 0 283.465 283.465" enable-background="new 0 0 283.465 283.465"
	 xml:space="preserve">
<g>
	<g>
		<circle fill="#0096FF" cx="110.549" cy="48.188" r="28.348"/>
		<path fill="#0096FF" d="M82.202,82.204v90.708c0,15.656,12.691,28.348,28.348,28.348s28.348-12.691,28.348-28.348V82.204H82.202z"
			/>
	</g>
	<g>
		<circle fill="#FFCC07" cx="172.915" cy="48.188" r="28.348"/>
		<path fill="#FFCC07" d="M201.264,82.204h-56.696v90.708h-0.001c0,18.787-15.229,34.016-34.018,34.016v0.002
			c-15.656,0-28.347,12.691-28.347,28.346c0,15.656,12.691,28.348,28.348,28.348c0.026,0,0.052-0.002,0.077-0.002
			c50.063-0.043,90.635-40.637,90.636-90.709h0.001V82.204z"/>
	</g>
</g>
</svg>
